<?xml version="1.0" standalone="no"?>
<!DOCTYPE svg PUBLIC "-//W3C//DTD SVG 20010904//EN"
 "http://www.w3.org/TR/2001/REC-SVG-20010904/DTD/svg10.dtd">
<svg version="1.0" xmlns="http://www.w3.org/2000/svg"
 width="200.000000pt" height="200.000000pt" viewBox="0 0 200.000000 200.000000"
 preserveAspectRatio="xMidYMid meet">

<g transform="translate(0.000000,200.000000) scale(0.100000,-0.100000)"
fill="#000000" stroke="none">
<path d="M842 1588 c-20 -24 -42 -131 -30 -145 27 -33 57 3 73 90 10 51 -17
85 -43 55z"/>
<path d="M583 1543 c-4 -10 6 -39 24 -72 24 -43 37 -56 54 -56 35 0 34 26 -1
89 -33 58 -64 73 -77 39z"/>
<path d="M1002 1409 c-60 -34 -74 -56 -47 -75 16 -12 25 -10 64 12 69 40 87
59 71 78 -17 22 -27 20 -88 -15z"/>
<path d="M424 1345 c-11 -29 4 -42 71 -60 58 -15 68 -16 81 -3 25 25 6 45 -61
62 -79 20 -84 20 -91 1z"/>
<path d="M744 1331 c-32 -14 -64 -60 -64 -94 0 -25 108 -236 202 -394 l19 -32
-47 20 c-83 37 -151 25 -175 -32 -9 -24 -9 -33 5 -53 24 -38 349 -284 412
-313 123 -56 280 -16 398 103 86 86 107 212 57 343 -26 69 -138 272 -159 288
-26 19 -76 15 -107 -9 -20 -16 -39 -21 -69 -19 -30 2 -49 -4 -68 -18 -17 -14
-41 -21 -67 -21 -23 0 -53 -7 -67 -16 -13 -9 -26 -15 -28 -13 -2 2 -31 54 -65
115 -33 61 -69 118 -79 127 -23 21 -70 29 -98 18z m71 -73 c9 -13 60 -102 113
-198 94 -170 123 -205 138 -165 4 9 -3 34 -15 55 -26 47 -27 76 -1 90 30 16
52 5 75 -37 22 -40 33 -47 54 -34 13 8 13 15 1 50 -10 33 -11 43 0 56 21 26
59 18 78 -15 11 -21 24 -30 37 -28 17 3 20 9 17 44 -3 42 12 60 41 48 16 -6
130 -215 151 -277 9 -26 16 -75 16 -109 0 -111 -53 -182 -180 -242 -52 -25
-77 -31 -130 -31 -79 1 -101 12 -240 118 -226 174 -242 188 -229 203 19 23 51
16 143 -32 79 -41 90 -44 103 -31 14 14 1 42 -121 262 -75 136 -136 251 -136
256 0 14 31 39 50 39 11 0 26 -10 35 -22z"/>
<path d="M517 1132 c-61 -37 -69 -45 -61 -65 9 -25 38 -21 100 14 43 25 54 36
52 53 -4 31 -36 30 -91 -2z"/>
</g>
</svg>
